<mxfile host="app.diagrams.net" modified="2023-10-13T14:16:22.819Z" agent="Mozilla/5.0 (Macintosh; Intel Mac OS X 10_15_7) AppleWebKit/537.36 (KHTML, like Gecko) Chrome/117.0.0.0 Safari/537.36 Edg/117.0.2045.55" etag="mU0J0reOYoGGNbaA4bfo" version="22.0.4" type="device">
  <diagram name="Page-1" id="NF6MBmcjPNnbceZiebFx">
    <mxGraphModel dx="1298" dy="1026" grid="1" gridSize="10" guides="1" tooltips="1" connect="1" arrows="1" fold="1" page="1" pageScale="1" pageWidth="827" pageHeight="1169" math="0" shadow="0">
      <root>
        <mxCell id="0" />
        <mxCell id="1" parent="0" />
        <mxCell id="pnGGZQMd89ZEnE11-C6j-18" value="MASDR" style="rounded=0;whiteSpace=wrap;html=1;verticalAlign=top;" vertex="1" parent="1">
          <mxGeometry x="260" y="174" width="479" height="326" as="geometry" />
        </mxCell>
        <mxCell id="pnGGZQMd89ZEnE11-C6j-5" value="raw_to_mzml.sh" style="rounded=0;whiteSpace=wrap;html=1;" vertex="1" parent="1">
          <mxGeometry x="130" y="214" width="110" height="60" as="geometry" />
        </mxCell>
        <mxCell id="pnGGZQMd89ZEnE11-C6j-7" value="- Alignment&lt;br&gt;- Binning&lt;br&gt;- Pre-Filtering&amp;nbsp;" style="shape=cube;whiteSpace=wrap;html=1;boundedLbl=1;backgroundOutline=1;darkOpacity=0.05;darkOpacity2=0.1;size=10;align=left;" vertex="1" parent="1">
          <mxGeometry x="309" y="243" width="120" height="80" as="geometry" />
        </mxCell>
        <mxCell id="pnGGZQMd89ZEnE11-C6j-9" value="Filtering&lt;br&gt;- Quality Control&lt;br style=&quot;border-color: var(--border-color);&quot;&gt;- Subtraction&lt;br&gt;- MassDefect&lt;br&gt;- Missingness&lt;br&gt;- LowIntensity&lt;br&gt;- BlackList&lt;br&gt;- Normalization" style="shape=cube;whiteSpace=wrap;html=1;boundedLbl=1;backgroundOutline=1;darkOpacity=0.05;darkOpacity2=0.1;size=10;align=left;" vertex="1" parent="1">
          <mxGeometry x="539" y="204" width="120" height="141" as="geometry" />
        </mxCell>
        <mxCell id="pnGGZQMd89ZEnE11-C6j-19" style="edgeStyle=orthogonalEdgeStyle;rounded=0;orthogonalLoop=1;jettySize=auto;html=1;exitX=0.5;exitY=1;exitDx=0;exitDy=0;exitPerimeter=0;entryX=0.5;entryY=0;entryDx=0;entryDy=0;" edge="1" parent="1" source="pnGGZQMd89ZEnE11-C6j-10" target="pnGGZQMd89ZEnE11-C6j-5">
          <mxGeometry relative="1" as="geometry" />
        </mxCell>
        <mxCell id="pnGGZQMd89ZEnE11-C6j-10" value="Raw Data" style="shape=note;whiteSpace=wrap;html=1;backgroundOutline=1;darkOpacity=0.05;size=18;verticalAlign=middle;" vertex="1" parent="1">
          <mxGeometry x="130" y="140" width="80" height="50" as="geometry" />
        </mxCell>
        <mxCell id="pnGGZQMd89ZEnE11-C6j-13" value="mzObj" style="edgeStyle=orthogonalEdgeStyle;rounded=0;orthogonalLoop=1;jettySize=auto;html=1;exitX=0;exitY=0;exitDx=120;exitDy=45;exitPerimeter=0;entryX=-0.001;entryY=0.587;entryDx=0;entryDy=0;entryPerimeter=0;" edge="1" parent="1" source="pnGGZQMd89ZEnE11-C6j-7" target="pnGGZQMd89ZEnE11-C6j-9">
          <mxGeometry x="0.0063" relative="1" as="geometry">
            <mxPoint as="offset" />
          </mxGeometry>
        </mxCell>
        <mxCell id="pnGGZQMd89ZEnE11-C6j-14" value="&lt;div style=&quot;text-align: left;&quot;&gt;&lt;span style=&quot;background-color: initial;&quot;&gt;Indentify:&lt;/span&gt;&lt;/div&gt;&lt;div style=&quot;text-align: left;&quot;&gt;&lt;span style=&quot;background-color: initial;&quot;&gt;- C13 Tagging&lt;/span&gt;&lt;/div&gt;&lt;div style=&quot;text-align: left;&quot;&gt;&lt;span style=&quot;background-color: initial;&quot;&gt;- Adduct&lt;/span&gt;&lt;/div&gt;&lt;div style=&quot;text-align: left;&quot;&gt;&lt;span style=&quot;background-color: initial;&quot;&gt;- HMDB&amp;nbsp;&lt;/span&gt;&lt;/div&gt;" style="shape=cube;whiteSpace=wrap;html=1;boundedLbl=1;backgroundOutline=1;darkOpacity=0.05;darkOpacity2=0.1;size=10;" vertex="1" parent="1">
          <mxGeometry x="309" y="370" width="120" height="80" as="geometry" />
        </mxCell>
        <mxCell id="pnGGZQMd89ZEnE11-C6j-15" value="mzLogObj" style="edgeStyle=orthogonalEdgeStyle;rounded=0;orthogonalLoop=1;jettySize=auto;html=1;exitX=0;exitY=0;exitDx=120;exitDy=75.5;exitPerimeter=0;entryX=0;entryY=0;entryDx=120;entryDy=65;entryPerimeter=0;" edge="1" parent="1" source="pnGGZQMd89ZEnE11-C6j-9" target="pnGGZQMd89ZEnE11-C6j-16">
          <mxGeometry relative="1" as="geometry">
            <Array as="points">
              <mxPoint x="700" y="280" />
              <mxPoint x="700" y="425" />
            </Array>
          </mxGeometry>
        </mxCell>
        <mxCell id="pnGGZQMd89ZEnE11-C6j-16" value="Statistics&lt;br&gt;- Welsh T-Test&lt;br&gt;- Anova&lt;br&gt;- PCA&lt;br&gt;- RandomForest&lt;br&gt;- Volcano&lt;br&gt;- HeatMap" style="shape=cube;whiteSpace=wrap;html=1;boundedLbl=1;backgroundOutline=1;darkOpacity=0.05;darkOpacity2=0.1;size=10;align=left;" vertex="1" parent="1">
          <mxGeometry x="539" y="360" width="120" height="120" as="geometry" />
        </mxCell>
        <mxCell id="pnGGZQMd89ZEnE11-C6j-29" value="" style="shape=curlyBracket;whiteSpace=wrap;html=1;rounded=1;flipH=1;labelPosition=right;verticalLabelPosition=middle;align=left;verticalAlign=middle;rotation=90;" vertex="1" parent="1">
          <mxGeometry x="304.25" y="80.75" width="20" height="144.5" as="geometry" />
        </mxCell>
        <mxCell id="pnGGZQMd89ZEnE11-C6j-31" style="edgeStyle=orthogonalEdgeStyle;rounded=0;orthogonalLoop=1;jettySize=auto;html=1;exitX=0.1;exitY=0.5;exitDx=0;exitDy=0;exitPerimeter=0;entryX=0;entryY=0;entryDx=55;entryDy=0;entryPerimeter=0;" edge="1" parent="1" source="pnGGZQMd89ZEnE11-C6j-29" target="pnGGZQMd89ZEnE11-C6j-7">
          <mxGeometry relative="1" as="geometry" />
        </mxCell>
        <mxCell id="pnGGZQMd89ZEnE11-C6j-32" value="Binning Math&lt;br&gt;Intensity thresholds&lt;br&gt;Missingness thresholds" style="text;html=1;strokeColor=none;fillColor=none;align=center;verticalAlign=middle;whiteSpace=wrap;rounded=0;" vertex="1" parent="1">
          <mxGeometry x="221.5" y="106" width="185" height="30" as="geometry" />
        </mxCell>
        <mxCell id="pnGGZQMd89ZEnE11-C6j-33" value="Meta Data" style="shape=note;whiteSpace=wrap;html=1;backgroundOutline=1;darkOpacity=0.05;size=18;verticalAlign=middle;" vertex="1" parent="1">
          <mxGeometry x="429" y="104" width="80" height="50" as="geometry" />
        </mxCell>
        <mxCell id="pnGGZQMd89ZEnE11-C6j-34" style="edgeStyle=orthogonalEdgeStyle;rounded=0;orthogonalLoop=1;jettySize=auto;html=1;exitX=0;exitY=0;exitDx=80;exitDy=34;exitPerimeter=0;entryX=0.223;entryY=0.013;entryDx=0;entryDy=0;entryPerimeter=0;" edge="1" parent="1" source="pnGGZQMd89ZEnE11-C6j-33" target="pnGGZQMd89ZEnE11-C6j-9">
          <mxGeometry relative="1" as="geometry" />
        </mxCell>
        <mxCell id="pnGGZQMd89ZEnE11-C6j-36" value="files.mzml" style="shape=note;whiteSpace=wrap;html=1;backgroundOutline=1;darkOpacity=0.05;size=18;verticalAlign=middle;" vertex="1" parent="1">
          <mxGeometry x="155" y="295" width="80" height="50" as="geometry" />
        </mxCell>
        <mxCell id="pnGGZQMd89ZEnE11-C6j-37" style="edgeStyle=orthogonalEdgeStyle;rounded=0;orthogonalLoop=1;jettySize=auto;html=1;exitX=0;exitY=0;exitDx=80;exitDy=34;exitPerimeter=0;entryX=0;entryY=0;entryDx=0;entryDy=35;entryPerimeter=0;" edge="1" parent="1" source="pnGGZQMd89ZEnE11-C6j-36" target="pnGGZQMd89ZEnE11-C6j-7">
          <mxGeometry relative="1" as="geometry">
            <Array as="points">
              <mxPoint x="235" y="333" />
              <mxPoint x="250" y="333" />
              <mxPoint x="250" y="278" />
            </Array>
          </mxGeometry>
        </mxCell>
        <mxCell id="pnGGZQMd89ZEnE11-C6j-38" style="edgeStyle=orthogonalEdgeStyle;rounded=0;orthogonalLoop=1;jettySize=auto;html=1;exitX=0.5;exitY=1;exitDx=0;exitDy=0;entryX=0.5;entryY=0;entryDx=0;entryDy=0;entryPerimeter=0;" edge="1" parent="1" source="pnGGZQMd89ZEnE11-C6j-5" target="pnGGZQMd89ZEnE11-C6j-36">
          <mxGeometry relative="1" as="geometry" />
        </mxCell>
        <mxCell id="pnGGZQMd89ZEnE11-C6j-39" value="" style="shape=curlyBracket;whiteSpace=wrap;html=1;rounded=1;flipH=1;labelPosition=right;verticalLabelPosition=middle;align=left;verticalAlign=middle;rotation=90;" vertex="1" parent="1">
          <mxGeometry x="645" y="74" width="20" height="140" as="geometry" />
        </mxCell>
        <mxCell id="pnGGZQMd89ZEnE11-C6j-40" style="edgeStyle=orthogonalEdgeStyle;rounded=0;orthogonalLoop=1;jettySize=auto;html=1;exitX=0.1;exitY=0.5;exitDx=0;exitDy=0;exitPerimeter=0;entryX=0;entryY=0;entryDx=55;entryDy=0;entryPerimeter=0;" edge="1" parent="1" source="pnGGZQMd89ZEnE11-C6j-39" target="pnGGZQMd89ZEnE11-C6j-9">
          <mxGeometry relative="1" as="geometry">
            <Array as="points">
              <mxPoint x="655" y="164" />
              <mxPoint x="594" y="164" />
            </Array>
          </mxGeometry>
        </mxCell>
        <mxCell id="pnGGZQMd89ZEnE11-C6j-41" value="List( bad_mzs )&lt;br&gt;Subtraction Filter&lt;br&gt;Intensity thresholds&lt;br&gt;Missingness thresholds&lt;br&gt;Imputation thresholds" style="text;html=1;strokeColor=none;fillColor=none;align=center;verticalAlign=middle;whiteSpace=wrap;rounded=0;" vertex="1" parent="1">
          <mxGeometry x="562.5" y="40" width="185" height="117" as="geometry" />
        </mxCell>
        <mxCell id="pnGGZQMd89ZEnE11-C6j-42" value="" style="shape=curlyBracket;whiteSpace=wrap;html=1;rounded=1;flipH=1;labelPosition=right;verticalLabelPosition=middle;align=left;verticalAlign=middle;rotation=-90;" vertex="1" parent="1">
          <mxGeometry x="593.5" y="406.5" width="20" height="215" as="geometry" />
        </mxCell>
        <mxCell id="pnGGZQMd89ZEnE11-C6j-43" value="Analysis Attribute (e.g. Phenotype)&lt;br&gt;Welch ToAdjust? ( &amp;amp; method )&lt;br&gt;ToCorrelation? ( &amp;amp; cutoff )" style="text;html=1;strokeColor=none;fillColor=none;align=center;verticalAlign=middle;whiteSpace=wrap;rounded=0;" vertex="1" parent="1">
          <mxGeometry x="490" y="529" width="230" height="30" as="geometry" />
        </mxCell>
        <mxCell id="pnGGZQMd89ZEnE11-C6j-44" value="" style="shape=curlyBracket;whiteSpace=wrap;html=1;rounded=1;flipH=1;labelPosition=right;verticalLabelPosition=middle;align=left;verticalAlign=middle;rotation=-90;" vertex="1" parent="1">
          <mxGeometry x="359" y="460" width="20" height="140" as="geometry" />
        </mxCell>
        <mxCell id="pnGGZQMd89ZEnE11-C6j-45" style="edgeStyle=orthogonalEdgeStyle;rounded=0;orthogonalLoop=1;jettySize=auto;html=1;exitX=0.1;exitY=0.5;exitDx=0;exitDy=0;exitPerimeter=0;entryX=0;entryY=0;entryDx=65;entryDy=80;entryPerimeter=0;" edge="1" parent="1" source="pnGGZQMd89ZEnE11-C6j-44" target="pnGGZQMd89ZEnE11-C6j-14">
          <mxGeometry relative="1" as="geometry">
            <Array as="points">
              <mxPoint x="369" y="480" />
              <mxPoint x="374" y="480" />
            </Array>
          </mxGeometry>
        </mxCell>
        <mxCell id="pnGGZQMd89ZEnE11-C6j-46" value="Adduct(s)" style="text;html=1;strokeColor=none;fillColor=none;align=center;verticalAlign=middle;whiteSpace=wrap;rounded=0;" vertex="1" parent="1">
          <mxGeometry x="254" y="529" width="230" height="30" as="geometry" />
        </mxCell>
        <mxCell id="pnGGZQMd89ZEnE11-C6j-47" style="edgeStyle=orthogonalEdgeStyle;rounded=0;orthogonalLoop=1;jettySize=auto;html=1;exitX=0.1;exitY=0.5;exitDx=0;exitDy=0;exitPerimeter=0;entryX=0;entryY=0;entryDx=65;entryDy=120;entryPerimeter=0;" edge="1" parent="1" source="pnGGZQMd89ZEnE11-C6j-42" target="pnGGZQMd89ZEnE11-C6j-16">
          <mxGeometry relative="1" as="geometry" />
        </mxCell>
        <mxCell id="pnGGZQMd89ZEnE11-C6j-49" value="mz" style="edgeStyle=orthogonalEdgeStyle;rounded=0;orthogonalLoop=1;jettySize=auto;html=1;exitX=0;exitY=0;exitDx=0;exitDy=55;exitPerimeter=0;entryX=0;entryY=0;entryDx=120;entryDy=45;entryPerimeter=0;" edge="1" parent="1" source="pnGGZQMd89ZEnE11-C6j-16" target="pnGGZQMd89ZEnE11-C6j-14">
          <mxGeometry relative="1" as="geometry">
            <mxPoint as="offset" />
          </mxGeometry>
        </mxCell>
      </root>
    </mxGraphModel>
  </diagram>
</mxfile>
